<svg width="31" height="32" viewBox="0 0 31 32" fill="none" xmlns="http://www.w3.org/2000/svg">
<path d="M14.06 18.4161C15.1693 19.0566 16.5399 18.845 17.4112 17.9864L12.7565 15.299C12.4486 16.4825 12.9505 17.7756 14.06 18.4161ZM16.8478 13.5874C15.7383 12.9469 14.3678 13.1585 13.4965 14.0171L18.1512 16.7045C18.4591 15.521 17.9571 14.2279 16.8478 13.5874ZM18.5 3.17551L25.0386 6.95054L23.0696 10.361L16.531 6.586L18.5 3.17551Z" fill="#A1A1A1"/>
<path d="M18.7245 18.7446C17.4191 20.3026 15.1395 20.7485 13.32 19.6981C11.5004 18.6475 10.7468 16.4503 11.4434 14.5409L6.31445 11.5797L1.47916 19.9546C0.86703 21.0149 1.2316 22.3755 2.29184 22.9876L4.58733 24.3129L6.93096 20.2536C7.13533 19.8996 7.58812 19.7784 7.94195 19.9827L15.7624 24.4978C16.1164 24.7022 16.2376 25.1549 16.0333 25.5088L13.6897 29.5681L15.9853 30.8935C17.0455 31.5056 18.4061 31.1411 19.0182 30.0808L23.8535 21.7059L18.7245 18.7446ZM12.1835 13.259C13.4888 11.7009 15.7685 11.2551 17.5881 12.3056C19.4075 13.3561 20.1612 15.5532 19.4646 17.4628L24.5935 20.4239L29.4288 12.0489C30.0409 10.9887 29.6763 9.6281 28.6161 9.01598L26.3206 7.69067L23.9815 11.7421C23.7771 12.0961 23.3245 12.2174 22.9705 12.013L15.1501 7.49786C14.7962 7.29358 14.6748 6.84085 14.8792 6.48688L17.2183 2.43545L14.9228 1.11014C13.8626 0.498015 12.502 0.862587 11.8898 1.92282L7.05454 10.2978L12.1835 13.259Z" fill="#A1A1A1"/>
<path d="M7.84285 21.6346L14.3814 25.4097L12.4078 28.828L5.86927 25.053L7.84285 21.6346Z" fill="#A1A1A1"/>
</svg>
